<svg xmlns="http://www.w3.org/2000/svg" viewBox="0 0 512 512" style="height: 512px; width: 512px;"><defs><linearGradient id="delapouite-perspective-dice-six-faces-random-gradient-4"><stop offset="0%" stop-color="#000000" stop-opacity="1"></stop><stop offset="100%" stop-color="#000000" stop-opacity="1"></stop></linearGradient><linearGradient id="delapouite-perspective-dice-six-faces-random-gradient-5"><stop offset="0%" stop-color="#ffffff" stop-opacity="1"></stop><stop offset="100%" stop-color="#ffffff" stop-opacity="1"></stop></linearGradient><linearGradient id="delapouite-perspective-dice-six-faces-random-gradient-6"><stop offset="0%" stop-color="#ffffff" stop-opacity="1"></stop><stop offset="100%" stop-color="#ffffff" stop-opacity="1"></stop></linearGradient><linearGradient id="delapouite-perspective-dice-six-faces-random-gradient-7"><stop offset="0%" stop-color="#000000" stop-opacity="1"></stop><stop offset="100%" stop-color="#000000" stop-opacity="1"></stop></linearGradient><linearGradient id="delapouite-perspective-dice-six-faces-random-gradient-8"><stop offset="0%" stop-color="#000000" stop-opacity="1"></stop><stop offset="100%" stop-color="#000000" stop-opacity="1"></stop></linearGradient><linearGradient id="delapouite-perspective-dice-six-faces-random-gradient-9"><stop offset="0%" stop-color="#000000" stop-opacity="1"></stop><stop offset="100%" stop-color="#000000" stop-opacity="1"></stop></linearGradient><linearGradient id="delapouite-perspective-dice-six-faces-random-gradient-10"><stop offset="0%" stop-color="#000000" stop-opacity="1"></stop><stop offset="100%" stop-color="#000000" stop-opacity="1"></stop></linearGradient><linearGradient id="delapouite-perspective-dice-six-faces-random-gradient-11"><stop offset="0%" stop-color="#000000" stop-opacity="1"></stop><stop offset="100%" stop-color="#000000" stop-opacity="1"></stop></linearGradient></defs><g class="" transform="translate(3,-3)" style=""><g><path d="M255.76 44.764C249.584 44.764 243.407 46.148 238.623 48.916L85.87 137.276C76.3 142.812 76.3 151.566 85.87 157.102L238.623 245.462C248.193 250.998 263.326 250.998 272.895 245.462L425.648 157.102C435.218 151.567 435.218 142.812 425.648 137.277L272.895 48.917C268.11 46.147 261.935 44.764 255.76 44.764Z" class="" fill="#ffffff" fill-opacity="1" stroke="#ffffff" stroke-opacity="1" stroke-width="0"></path><path d="M254.936 97.874C263.949 97.971 272.053 100.036 279.246 104.066C284.166 106.824 287.389 109.969 288.912 113.504C290.385 117.011 290.472 121.634 289.172 127.369L287.572 133.075C286.512 137.158 286.292 140.095 286.912 141.885C287.482 143.649 288.895 145.163 291.154 146.429L294.544 148.327L261.309 166.947L257.616 164.88C253.498 162.574 250.872 159.968 249.733 157.06C248.545 154.125 248.743 149.457 250.327 143.055L251.851 137.307C252.738 133.884 252.824 131.077 252.111 128.889C251.458 126.665 249.977 124.906 247.667 123.612C244.152 121.642 239.941 120.936 235.037 121.489C230.081 122.015 224.965 123.757 219.687 126.714C214.715 129.499 210.2 132.986 206.137 137.174C202.025 141.336 198.497 146.098 195.55 151.462L171.9 138.21C177.218 132.87 182.443 128.2 187.576 124.197C192.71 120.197 198.13 116.597 203.838 113.397C218.814 105.007 232.741 100.017 245.618 98.43C248.826 98.026 251.933 97.84 254.938 97.873Z" class="selected" fill="#000000" fill-opacity="1"></path><path d="M305.693 154.574L332.508 169.598L299.273 188.218L272.457 173.195L305.693 154.575Z" class="" fill="url(#delapouite-perspective-dice-six-faces-random-gradient-4)" stroke="#ffffff" stroke-opacity="1" stroke-width="3"></path><path d="M75.67 173.84C69.917 173.685 66.006 178.176 66.006 186.12L66.006 343.816C66.006 354.868 73.576 367.979 83.146 373.506L230.076 458.354C239.646 463.88 247.216 459.51 247.216 448.459L247.216 290.76C247.216 279.708 239.646 266.6 230.076 261.072L83.146 176.225C80.456 174.67 77.921 173.898 75.67 173.838Z" class="" fill="url(#delapouite-perspective-dice-six-faces-random-gradient-5)" stroke="#ffffff" stroke-opacity="1" stroke-width="3"></path><path d="M436.443 173.842C434.193 173.902 431.66 174.672 428.969 176.227L282.034 261.074C272.464 266.601 264.894 279.712 264.894 290.764L264.894 448.464C264.894 459.514 272.464 463.882 282.034 458.354L428.97 373.51C438.54 367.983 446.107 354.874 446.107 343.822L446.107 186.122C446.107 178.18 442.197 173.69 436.443 173.844Z" class="" fill="url(#delapouite-perspective-dice-six-faces-random-gradient-6)" stroke="#ffffff" stroke-opacity="1" stroke-width="3"></path><path d="M114.898 237.594C121.451 238.96 127.436 240.632 132.852 242.607C138.267 244.583 143.495 247.024 148.532 249.932C161.745 257.562 171.818 266.256 178.75 276.014C185.682 285.714 189.148 296.06 189.148 307.054C189.148 312.694 188.093 317.148 185.98 320.418C183.868 323.63 180.266 326.328 175.176 328.512L169.976 330.432C166.294 331.874 163.883 333.36 162.746 334.892C161.609 336.364 161.041 338.394 161.041 340.984L161.041 344.869L131.716 327.936L131.716 323.706C131.716 318.986 132.608 315.33 134.396 312.736C136.183 310.084 139.948 307.596 145.688 305.269L150.888 303.263C153.975 302.053 156.222 300.531 157.63 298.696C159.09 296.893 159.822 294.668 159.822 292.02C159.822 287.993 158.522 284.105 155.922 280.36C153.322 276.556 149.695 273.31 145.037 270.62C140.65 268.088 135.911 266.33 130.82 265.348C125.73 264.308 120.422 264.094 114.898 264.703L114.898 237.593Z" class="" fill="url(#delapouite-perspective-dice-six-faces-random-gradient-7)" stroke="#ffffff" stroke-opacity="1" stroke-width="3"></path><path d="M384.438 246.201C385.96 246.201 387.37 246.366 388.67 246.694C395.602 248.39 399.068 254.734 399.068 265.728C399.068 271.368 398.012 277.042 395.9 282.751C393.788 288.401 390.186 295.258 385.096 303.319L379.896 311.243C376.214 316.938 373.803 321.206 372.666 324.05C371.529 326.835 370.961 329.523 370.961 332.113L370.961 335.998L341.636 352.93L341.636 348.7C341.636 343.98 342.53 339.29 344.316 334.633C346.106 329.918 349.868 323.083 355.608 314.129L360.808 306.119C363.895 301.343 366.142 297.225 367.55 293.765C369.01 290.273 369.742 287.203 369.742 284.555C369.742 280.527 368.442 278.141 365.844 277.397C363.244 276.597 359.614 277.539 354.957 280.227C350.57 282.76 345.833 286.477 340.742 291.372C335.652 296.212 330.344 302.124 324.82 309.112L324.82 282.002C331.373 275.802 337.356 270.562 342.77 266.284C348.187 262.006 353.415 258.414 358.45 255.507C369.188 249.307 377.85 246.205 384.44 246.2Z" class="" fill="url(#delapouite-perspective-dice-six-faces-random-gradient-8)"></path><path d="M131.715 340.716L161.041 357.646L161.041 388.382L131.716 371.452L131.716 340.717Z" class="" fill="url(#delapouite-perspective-dice-six-faces-random-gradient-9)" stroke="#ffffff" stroke-opacity="1" stroke-width="3"></path><path d="M370.961 348.776L370.961 379.511L341.636 396.441L341.636 365.708L370.962 348.776Z" class="" fill="url(#delapouite-perspective-dice-six-faces-random-gradient-10)"></path></g></g></svg>