<svg xmlns="http://www.w3.org/2000/svg" viewBox="0 0 512 512" style="height: 512px; width: 512px;"><defs><linearGradient id="delapouite-dice-six-faces-three-gradient-2"><stop offset="0%" stop-color="#ffffff" stop-opacity="1"></stop><stop offset="100%" stop-color="#ffffff" stop-opacity="1"></stop></linearGradient><linearGradient id="delapouite-dice-six-faces-three-gradient-3"><stop offset="0%" stop-color="#000000" stop-opacity="1"></stop><stop offset="100%" stop-color="#000000" stop-opacity="1"></stop></linearGradient><linearGradient id="delapouite-dice-six-faces-three-gradient-4"><stop offset="0%" stop-color="#000000" stop-opacity="1"></stop><stop offset="100%" stop-color="#000000" stop-opacity="1"></stop></linearGradient><linearGradient id="delapouite-dice-six-faces-three-gradient-5"><stop offset="0%" stop-color="#000000" stop-opacity="1"></stop><stop offset="100%" stop-color="#000000" stop-opacity="1"></stop></linearGradient><linearGradient id="delapouite-dice-six-faces-three-gradient-6"><stop offset="0%" stop-color="#000000" stop-opacity="1"></stop><stop offset="100%" stop-color="#000000" stop-opacity="1"></stop></linearGradient><linearGradient id="delapouite-dice-six-faces-three-gradient-7"><stop offset="0%" stop-color="#000000" stop-opacity="1"></stop><stop offset="100%" stop-color="#000000" stop-opacity="1"></stop></linearGradient><linearGradient id="delapouite-dice-six-faces-three-gradient-8"><stop offset="0%" stop-color="#000000" stop-opacity="1"></stop><stop offset="100%" stop-color="#000000" stop-opacity="1"></stop></linearGradient><linearGradient id="delapouite-dice-six-faces-three-gradient-9"><stop offset="0%" stop-color="#000000" stop-opacity="1"></stop><stop offset="100%" stop-color="#000000" stop-opacity="1"></stop></linearGradient><linearGradient id="delapouite-dice-six-faces-three-gradient-10"><stop offset="0%" stop-color="#000000" stop-opacity="1"></stop><stop offset="100%" stop-color="#000000" stop-opacity="1"></stop></linearGradient><linearGradient id="delapouite-dice-six-faces-three-gradient-11"><stop offset="0%" stop-color="#000000" stop-opacity="1"></stop><stop offset="100%" stop-color="#000000" stop-opacity="1"></stop></linearGradient></defs><g class="" transform="translate(0,-1)" style=""><g><path d="M74.5 36C53.237 36 36 53.237 36 74.5L36 437.5C36 458.763 53.237 476 74.5 476L437.5 476C458.763 476 476 458.763 476 437.5L476 74.5C476 53.237 458.763 36 437.5 36L74.5 36Z" class="selected" fill="url(#delapouite-dice-six-faces-three-gradient-2)" stroke="#ffffff" stroke-opacity="1" stroke-width="0"></path><path d="M391.47 72.03C418.497 72.825 439.995 94.961 440 122C440 160.49 398.333 184.546 365 165.301C349.53 156.37 340 139.863 340 122C340.005 93.813 363.295 71.201 391.47 72.03Z" class="" fill="url(#delapouite-dice-six-faces-three-gradient-3)" stroke="#ffffff" stroke-opacity="1" stroke-width="3"></path><path d="M256 206C294.49 206 318.546 247.667 299.301 281C290.37 296.47 273.863 306 256 306C217.51 306 193.454 264.333 212.699 231C221.63 215.53 238.137 206 256 206Z" class="" fill="url(#delapouite-dice-six-faces-three-gradient-4)" stroke="#ffffff" stroke-opacity="1" stroke-width="3"></path><path d="M123.47 340.03C150.497 340.825 171.995 362.961 172 390C172 428.49 130.333 452.546 97 433.301C81.53 424.37 72 407.863 72 390C72.005 361.813 95.295 339.201 123.47 340.03Z" class="" fill="url(#delapouite-dice-six-faces-three-gradient-5)" stroke="#ffffff" stroke-opacity="1" stroke-width="3"></path></g></g></svg>