<svg xmlns="http://www.w3.org/2000/svg" viewBox="0 0 512 512" style="height: 512px; width: 512px;"><defs><linearGradient id="delapouite-dice-fire-gradient-1"><stop offset="0%" stop-color="#88117f" stop-opacity="1"></stop><stop offset="100%" stop-color="#6173d8" stop-opacity="1"></stop></linearGradient><linearGradient id="delapouite-dice-fire-gradient-2"><stop offset="0%" stop-color="#88117f" stop-opacity="1"></stop><stop offset="100%" stop-color="#6173d8" stop-opacity="1"></stop></linearGradient><linearGradient id="delapouite-dice-fire-gradient-3"><stop offset="0%" stop-color="#ffffff" stop-opacity="1"></stop><stop offset="100%" stop-color="#ffffff" stop-opacity="1"></stop></linearGradient><linearGradient id="delapouite-dice-fire-gradient-4"><stop offset="0%" stop-color="#000000" stop-opacity="1"></stop><stop offset="100%" stop-color="#000000" stop-opacity="1"></stop></linearGradient><linearGradient id="delapouite-dice-fire-gradient-5"><stop offset="0%" stop-color="#000000" stop-opacity="1"></stop><stop offset="100%" stop-color="#000000" stop-opacity="1"></stop></linearGradient><linearGradient id="delapouite-dice-fire-gradient-6"><stop offset="0%" stop-color="#000000" stop-opacity="1"></stop><stop offset="100%" stop-color="#000000" stop-opacity="1"></stop></linearGradient><linearGradient id="delapouite-dice-fire-gradient-7"><stop offset="0%" stop-color="#ffffff" stop-opacity="1"></stop><stop offset="100%" stop-color="#ffffff" stop-opacity="1"></stop></linearGradient><linearGradient id="delapouite-dice-fire-gradient-8"><stop offset="0%" stop-color="#ffffff" stop-opacity="1"></stop><stop offset="100%" stop-color="#ffffff" stop-opacity="1"></stop></linearGradient><linearGradient id="delapouite-dice-fire-gradient-9"><stop offset="0%" stop-color="#000000" stop-opacity="1"></stop><stop offset="100%" stop-color="#000000" stop-opacity="1"></stop></linearGradient><linearGradient id="delapouite-dice-fire-gradient-10"><stop offset="0%" stop-color="#000000" stop-opacity="1"></stop><stop offset="100%" stop-color="#000000" stop-opacity="1"></stop></linearGradient><linearGradient id="delapouite-dice-fire-gradient-11"><stop offset="0%" stop-color="#000000" stop-opacity="1"></stop><stop offset="100%" stop-color="#000000" stop-opacity="1"></stop></linearGradient></defs><g class="" transform="translate(-1,0)" style=""><g><path d="M218.4 24.72C204.2 24.72 187.9 28.28 168.9 36.6C246.1 45.2 234.8 128 183 142.8C117.6 161.5 51.69 119.1 84.66 43.6C44.99 62.55 42.49 124.4 71.73 155.1C141.3 227.9 56.9 279 37.25 200.7C-1.929 326.2 60.34 489.5 258.7 489.5C509.4 489.5 540.7 114.8 387.9 74.46C414.4 117.5 374.8 145.4 363 147.6C311.7 157.5 304.9 24.71 218.4 24.72Z" class="selected" fill="url(#delapouite-dice-fire-gradient-2)" stroke="#ffffff" stroke-opacity="1" stroke-width="3"></path><path d="M255.9 142.8C260.4 142.8 265.3 143.9 268.7 145.7L384.6 212.8C392 216.9 392 223.7 384.6 228L268.7 294.9C261.5 299.2 250.2 299.2 243 294.9L126.8 228C119.5 223.7 119.5 216.9 126.8 212.8L243 145.7C246.4 143.9 250.9 142.8 255.9 142.8Z" class="" fill="url(#delapouite-dice-fire-gradient-3)" stroke="#ffffff" stroke-opacity="1" stroke-width="3"></path><path d="M166.9 205.4C145.3 205 133.8 220.4 148.7 229.7C158.3 234.5 172.4 234.1 181.4 228.9C190.2 223.6 190.9 215.2 182.9 209.5C178.6 207 172.9 205.5 166.9 205.4Z" class="" fill="url(#delapouite-dice-fire-gradient-4)" stroke="#ffffff" stroke-opacity="1" stroke-width="3"></path><path d="M345.5 205.5C324.7 205.9 314.2 221 329.2 230C338.8 234.9 353.1 234.6 362.2 229.3C371.1 224 371.7 215.4 363.4 209.7C359.2 207.3 353.5 205.7 347.5 205.5L345.5 205.5Z" class="" fill="url(#delapouite-dice-fire-gradient-5)" stroke="#ffffff" stroke-opacity="1" stroke-width="3"></path><path d="M256.5 205.5C249.9 205.4 243.5 207 238.8 209.7C228.6 215.3 228.4 224.8 238.2 230.6C248.1 236.4 264 236.2 273.3 230C288.3 221 277.9 205.7 256.5 205.5Z" class="" fill="url(#delapouite-dice-fire-gradient-6)" stroke="#ffffff" stroke-opacity="1" stroke-width="3"></path><path d="M115.5 246.5C117 246.6 118.9 247 121.1 248.1L232.6 312.6C239.8 316.7 245.5 326.8 245.5 335.1L245.5 454.8C245.5 463.1 239.8 466.5 232.6 462.4L121.2 398C113.8 393.7 108 383.8 108 375.4L108 255.7C108 249.5 111 246.5 115.5 246.5Z" class="" fill="url(#delapouite-dice-fire-gradient-7)" stroke="#ffffff" stroke-opacity="1" stroke-width="3"></path><path d="M396.8 246.5C401 246.5 404 249.5 404 255.7L404 375.4C404 383.8 398 393.7 391 398L279.5 462.4C272.3 466.5 266.6 463.1 266.6 454.8L266.6 335.1C266.6 326.8 272.3 316.7 279.5 312.6L391 248.1C393.1 247 395.2 246.6 396.8 246.5Z" class="" fill="url(#delapouite-dice-fire-gradient-8)" stroke="#ffffff" stroke-opacity="1" stroke-width="3"></path><path d="M211.8 312L210.7 312C205.4 312.4 202.2 316.8 202.2 323.6C201.6 334 209.4 347.7 219.1 353.4C228.9 359 236.7 354.5 236.3 343.5C236.5 329.3 223 312.4 211.8 312Z" class="" fill="url(#delapouite-dice-fire-gradient-9)" stroke="#ffffff" stroke-opacity="1" stroke-width="3"></path><path d="M342.7 333.8C331.5 333.9 317.9 351 318 365.2C318.1 375.6 325.7 379.6 335.2 374.1C344.6 368.6 352.2 355.8 352.3 345.3C352.3 338.6 349 334.2 343.8 333.8L342.7 333.8Z" class="" fill="url(#delapouite-dice-fire-gradient-10)" stroke="#ffffff" stroke-opacity="1" stroke-width="3"></path><path d="M125.8 356.3C120.4 356.6 117.1 361 117.1 367.9C116.6 378.4 124.4 392 134.1 397.7C143.9 403.2 151.7 398.7 151.3 387.6C151.3 373.1 137.2 355.8 125.8 356.3Z" class="" fill="url(#delapouite-dice-fire-gradient-11)" stroke="#ffffff" stroke-opacity="1" stroke-width="3"></path></g></g></svg>